<svg xmlns="http://www.w3.org/2000/svg" xmlns:xlink="http://www.w3.org/1999/xlink" width="195"
    height="195" viewBox="0 0 195 195">
    <defs>
        <linearGradient id="linear-gradient" x1="0.19" y1="0.506" x2="1.377" y2="0.506"
            gradientUnits="objectBoundingBox">
            <stop offset="0" stop-color="#8bb93e" />
            <stop offset="1" stop-color="#4ca243" />
        </linearGradient>
        <linearGradient id="linear-gradient-2" x1="0.594" y1="0.923" x2="0.594" y2="0.242"
            xlink:href="#linear-gradient" />
        <linearGradient id="linear-gradient-3" x1="0.172" y1="0.423" x2="1.435" y2="0.423"
            xlink:href="#linear-gradient" />
    </defs>
    <g id="Group_182" transform="translate(-90 -621)">
        <circle id="Ellipse_9" cx="97.5" cy="97.5" r="97.5" transform="translate(90 621)"
            fill="#f9f9f9" />
        <g id="Group_181" transform="translate(136.955 660.433)">
            <g id="Group_10" transform="translate(17.618 17.618)">
                <path id="Path_82"
                    d="M442.5,138.121a32.193,32.193,0,0,0-50.619,8.361l-.024.024a30.817,30.817,0,0,0,0,43.535A5.486,5.486,0,0,1,384.1,197.8a41.752,41.752,0,0,1,58.4-59.678Z"
                    transform="translate(-371.891 -126.538)" fill="url(#linear-gradient)" />
            </g>
            <g id="Group_11" transform="translate(33.877 20.405)">
                <path id="Path_83"
                    d="M451.116,140.113c.067.067.134.134.2.2a41.8,41.8,0,0,1-.2,58.846L425.469,224.81a5.486,5.486,0,1,1-7.758-7.758l25.647-25.646a30.818,30.818,0,0,0,0-43.535c-.145-.144-.289-.282-.438-.423a21.254,21.254,0,0,0-35.121,20.96,5.485,5.485,0,0,1-10.6,2.829,32.225,32.225,0,0,1,53.267-31.75C450.685,139.69,450.9,139.9,451.116,140.113Z"
                    transform="translate(-396.114 -130.69)" fill="url(#linear-gradient-2)" />
            </g>
            <g id="Group_12">
                <path id="Path_84"
                    d="M437.153,116.1a5.578,5.578,0,0,1-.842,1.083,5.482,5.482,0,0,1-6.675.836,48.377,48.377,0,0,0-66.265,66.265,5.484,5.484,0,1,1-9.433,5.6,59.344,59.344,0,0,1,81.294-81.294A5.481,5.481,0,0,1,437.153,116.1Z"
                    transform="translate(-345.643 -100.29)" fill="url(#linear-gradient-3)" />
            </g>
            <g id="Group_15" transform="translate(28.556 19.493)">
                <g id="Group_14">
                    <g id="Group_13">
                        <path id="Path_85"
                            d="M476.659,143.4l.088.088a.862.862,0,0,0,.085.07A1.826,1.826,0,0,0,476.659,143.4Z"
                            transform="translate(-417.274 -133.955)" fill="#008543" />
                        <path id="Path_86"
                            d="M447.571,138.771c-.367-.339-.737-.667-1.114-.981-.406-.349-.818-.677-1.242-.994-.631-.483-1.273-.935-1.932-1.361-.437-.289-.881-.565-1.329-.822-.836-.49-1.693-.938-2.56-1.34-.1-.049-.194-.095-.3-.134-.424-.2-.846-.381-1.28-.554-.244-.1-.491-.194-.737-.285s-.48-.177-.72-.261c-.483-.173-.966-.325-1.457-.469-.243-.074-.487-.141-.733-.2s-.487-.134-.734-.19-.494-.12-.744-.173q-.465-.106-.93-.19c-.187-.039-.371-.075-.558-.1-.246-.049-.493-.085-.747-.119a31.044,31.044,0,0,0-4.394-.346c-.257,0-.512,0-.762,0a31.66,31.66,0,0,0-4.545.377c-.25.039-.5.081-.755.127s-.5.092-.747.141a33,33,0,0,0-4.535,1.27c-.226.085-.452.169-.674.257-.973.374-1.928.8-2.867,1.273-.211.105-.423.218-.631.328-.48.254-.948.518-1.414.8-.2.119-.409.246-.606.374a32.14,32.14,0,0,0-11.288,12.2l-.024.024a30.674,30.674,0,0,0-8.939,19.779,35.332,35.332,0,0,1,58.913-28.792l0,0C447.324,138.531,447.448,138.647,447.571,138.771Z"
                            transform="translate(-388.186 -129.331)" fill="#008543" />
                    </g>
                </g>
            </g>
            <g id="Group_17" transform="translate(10.972 6.211)">
                <g id="Group_16">
                    <path id="Path_87"
                        d="M442.369,119.391a5.624,5.624,0,0,1-.684.832,5.482,5.482,0,0,1-6.675.836,48.4,48.4,0,0,0-73,40.3,50.409,50.409,0,0,1,80.36-41.966Z"
                        transform="translate(-361.99 -109.543)" fill="#008543" />
                </g>
            </g>
        </g>
    </g>
</svg>
